<svg id="Calque_1" data-name="Calque 1" xmlns="http://www.w3.org/2000/svg" viewBox="0 0 804.89 402.44"><defs><style>.cls-1{fill:#fff;}.cls-2,.cls-4{fill:none;}.cls-2,.cls-3{stroke:#bdc8cb;}.cls-2,.cls-3,.cls-4{stroke-miterlimit:10;}.cls-3{fill:#bdc8cb;}.cls-4{stroke:#fff;}.cls-5{fill:#474747;}.cls-6{font-size:30px;}.cls-6,.cls-7{font-family:'Roboto';font-weight: 500;}.cls-7{font-size:13.85px;}</style></defs><title>CREDIT-CARD</title><rect class="cls-1" x="3.44" y="1.22" width="800" height="400" rx="20"/><g id="Calque_2" data-name="Calque 2"><path class="cls-2" d="M2.94,163.72s93-38,375,125c190.4,110,426,71,426,71"/><path class="cls-2" d="M3.94,98.72s87-34,182-10c180.29,45.55,247,131,429,146s188-36,188-36"/><path class="cls-2" d="M2.94,90.72s67-58,239-13c142.78,37.36,231,149,491,111,51-8,71-19,71-19"/><path class="cls-2" d="M2.94,76.72s101-70,287-24c174,43,323,123,472,85,35-9,42-26,42-26"/></g><rect class="cls-3" x="96.44" y="112.22" width="111" height="88" rx="10"/><path class="cls-1" d="M207.44,126.22v29h-27a5,5,0,0,1-5-5v-19a5,5,0,0,1,5-5h27m1-1h-28a6,6,0,0,0-6,6v19a6,6,0,0,0,6,6h28v-31Z"/><path class="cls-1" d="M123.44,126.22a5,5,0,0,1,5,5v19a5,5,0,0,1-5,5h-27v-29h27m0-1h-28v31h28a6,6,0,0,0,6-6v-19a6,6,0,0,0-6-6Z"/><path class="cls-4" d="M96.44,110.72v14.5h27a5,5,0,0,0,5-5V109.41"/><path class="cls-4" d="M128.44,202.44V191.22a5,5,0,0,0-5-5h-27v15.63"/><path class="cls-1" d="M123.44,156.22a5,5,0,0,1,5,5v19a5,5,0,0,1-5,5h-27v-29h27m0-1h-28v31h28a6,6,0,0,0,6-6v-19a6,6,0,0,0-6-6Z"/><path class="cls-1" d="M207.44,156.22v29h-27a5,5,0,0,1-5-5v-19a5,5,0,0,1,5-5h27m1-1h-28a6,6,0,0,0-6,6v19a6,6,0,0,0,6,6h28v-31Z"/><path class="cls-4" d="M207.44,201.85V186.22h-27a5,5,0,0,0-5,5V203"/><path class="cls-4" d="M175.44,110.72v9.5a5,5,0,0,0,5,5h27v-14.5"/><circle class="cls-5" cx="97.4" cy="264.22" r="6.41"/><circle class="cls-5" cx="125.6" cy="264.22" r="6.41"/><circle class="cls-5" cx="151.22" cy="264.22" r="6.41"/><circle class="cls-5" cx="179.42" cy="264.22" r="6.41"/><circle class="cls-5" cx="261.43" cy="264.22" r="6.41"/><circle class="cls-5" cx="289.62" cy="264.22" r="6.41"/><circle class="cls-5" cx="315.25" cy="264.22" r="6.41"/><circle class="cls-5" cx="343.44" cy="264.22" r="6.41"/><circle class="cls-5" cx="425.45" cy="264.22" r="6.41"/><circle class="cls-5" cx="453.64" cy="264.22" r="6.41"/><circle class="cls-5" cx="479.27" cy="264.22" r="6.41"/><circle class="cls-5" cx="507.46" cy="264.22" r="6.41"/><circle class="cls-5" cx="589.47" cy="264.22" r="6.41"/><circle class="cls-5" cx="617.66" cy="264.22" r="6.41"/><circle class="cls-5" cx="643.29" cy="264.22" r="6.41"/><circle class="cls-5" cx="671.48" cy="264.22" r="6.41"/><text class="cls-6" transform="translate(96.74 344.19)" id="votre_nom">VOTRE NOM</text><text class="cls-6" transform="translate(623.55 344.19)" id="expiration">00/00</text><text class="cls-7" transform="translate(623.7 315.52)">EXPIRE A FIN</text></svg>