<?xml version="1.0" encoding="utf-8"?>
<!-- Generator: Adobe Illustrator 23.0.3, SVG Export Plug-In . SVG Version: 6.00 Build 0)  -->
<svg version="1.1" xmlns="http://www.w3.org/2000/svg" xmlns:xlink="http://www.w3.org/1999/xlink" x="0px" y="0px"
	 viewBox="0 0 750 500" style="enable-background:new 0 0 750 500;" xml:space="preserve">
<style type="text/css">
	.st0{display:none;}
	.st1{display:inline;}
	.st2{fill:url(#SVGID_1_);}
	.st3{opacity:0.1;fill:url(#SVGID_2_);}
	.st4{fill:#FFFFFF;}
	.st5{fill:url(#SVGID_3_);}
	.st6{opacity:0.4;fill:url(#SVGID_4_);}
	.st7{opacity:0.3;}
	.st8{clip-path:url(#SVGID_6_);}
	.st9{fill:url(#SVGID_7_);}
	.st10{fill:url(#SVGID_8_);}
	.st11{display:inline;fill:#FFFFFF;}
	.st12{display:inline;fill:url(#SVGID_9_);}
	.st13{font-family:'JosefinSans-Regular';}
	.st14{font-size:11.0448px;}
	.st15{fill:#E6E7E8;}
	.st16{fill:#58595B;}
	.st17{font-size:10.7698px;}
	.st18{fill:#939598;}
	.st19{font-size:10.1412px;}
	.st20{fill:#808285;}
	.st21{fill:#A7A9AC;}
	.st22{display:inline;fill:#EE2A7B;}
	.st23{display:none;fill:#FFFFFF;}
	.st24{font-family:'MyriadPro-Regular';}
	.st25{font-size:25.1984px;}
	.st26{display:inline;fill:#E6E7E8;}
	.st27{display:inline;fill:#A7A9AC;}
	.st28{opacity:0.5;fill:url(#SVGID_10_);}
	.st29{opacity:0.3;fill:url(#SVGID_11_);}
	.st30{display:none;opacity:0.3;}
	.st31{opacity:0.4;fill:url(#SVGID_12_);}
	.st32{fill:#33427E;}
	.st33{fill:#FFBA86;}
	.st34{fill:#262240;}
	.st35{fill:#261B34;}
	.st36{opacity:0.5;fill:#D1D3D4;}
	.st37{fill:#FF8B68;}
	.st38{fill:#FF6A68;}
	.st39{fill:#9C2A7B;}
	.st40{fill:#812A6A;}
	.st41{fill:#EE2A7B;}
	.st42{fill:#D12A7B;}
	.st43{display:none;fill:#33427E;}
	.st44{font-family:'JosefinSans-Bold';}
	.st45{font-size:21.1788px;}
	.st46{display:none;fill:#33B37E;}
	.st47{font-family:'JosefinSans-SemiBold';}
	.st48{font-size:13.2367px;}
	.st49{fill:#FFAB31;}
	.st50{fill:#C45E3C;}
	.st51{fill:#9F473C;}
	.st52{fill:#33817E;}
	.st53{fill:#33B37E;}
	.st54{fill:#FF7F31;}
	.st55{fill:#336865;}
	.st56{display:none;opacity:0.5;}
	.st57{fill:#231F20;}
</style>
<g id="BACKGROUND" class="st0">
	<g class="st1">
		<radialGradient id="SVGID_1_" cx="375" cy="250" r="504.0827" gradientUnits="userSpaceOnUse">
			<stop  offset="0" style="stop-color:#DBC7E7"/>
			<stop  offset="0.2692" style="stop-color:#D8C4E5"/>
			<stop  offset="0.4949" style="stop-color:#CDBCE0"/>
			<stop  offset="0.7048" style="stop-color:#BCAFD7"/>
			<stop  offset="0.9041" style="stop-color:#A49BCB"/>
			<stop  offset="1" style="stop-color:#9590C4"/>
		</radialGradient>
		<rect class="st2" width="750" height="500"/>
		<radialGradient id="SVGID_2_" cx="375" cy="250" r="318.6887" gradientUnits="userSpaceOnUse">
			<stop  offset="0" style="stop-color:#DBC7E7"/>
			<stop  offset="0.2518" style="stop-color:#BFB1D9"/>
			<stop  offset="0.5231" style="stop-color:#A89FCD"/>
			<stop  offset="0.7786" style="stop-color:#9A94C6"/>
			<stop  offset="1" style="stop-color:#9590C4"/>
		</radialGradient>
		<path class="st3" d="M527.5,500h205c5.9-9.8,11.6-19.8,17.5-29.5V167.2c-8.8,2-17.2,4.4-24.2,6.3
			c-54.4,14.3-105.5,39.9-157.2,61.7c-23.6,10-69.1,33.5-76.7-6c-8.9-46.7,31.3-91.3,60.1-121.9c34-36,74.4-65.8,106.7-103.2
			c1.1-1.3,2.3-2.6,3.4-4H366c-1.8,1.3-3.7,2.6-5.5,4c-45.2,33.7-81.5,69-133.9,99.2c-26.2,15-79,50.2-107.9,19.5
			c-29.6-31.4,18-86.5,33-112.9c1.6-2.8,3.6-6.1,5.9-9.7H0v283.6c37.6-12.5,138-35.5,142.7,17.7c2.6,28.7-41.2,62.9-57.2,82.2
			c-28.7,34.6-51.4,73.4-72.3,113c-0.6,1.2-1.3,2.3-1.9,3.5h180.3c5.6-3.9,11.2-7.6,16.9-11.3c62.8-41,126.9-79.9,193.7-114.3
			c37.7-19.5,93.3-46.7,137.8-37.1c31.2,6.8,18.5,41.3,13.7,65.6C547.3,434.8,536.1,467.2,527.5,500z"/>
	</g>
</g>
<g id="OBJECTS">
	<g>
		<g class="st0">
			
				<image style="display:inline;overflow:visible;" width="3386" height="2402" xlink:href="AA7F5BE8.png"  transform="matrix(0.24 0 0 0.24 -24.52 -24)">
			</image>
		</g>
		<g>
			<rect x="-1.3" y="-1.5" class="st4" width="735.6" height="500.3"/>
			<radialGradient id="SVGID_3_" cx="190.9583" cy="86.0005" r="466.9917" gradientUnits="userSpaceOnUse">
				<stop  offset="0" style="stop-color:#7256AE"/>
				<stop  offset="0.4193" style="stop-color:#7553AE"/>
				<stop  offset="0.7704" style="stop-color:#804BAE"/>
				<stop  offset="1" style="stop-color:#8B42AE"/>
			</radialGradient>
			<path class="st5" d="M-1.3,498.8h371c78.1,0,92.7-55.4,86-107L409-1.5H-1.3V498.8z"/>
			<linearGradient id="SVGID_4_" gradientUnits="userSpaceOnUse" x1="-1.3271" y1="48.8188" x2="229.1731" y2="48.8188">
				<stop  offset="5.376340e-03" style="stop-color:#FFFFFF;stop-opacity:0"/>
				<stop  offset="1" style="stop-color:#A9D8E1"/>
			</linearGradient>
			<path class="st6" d="M-1.3-1.5V99.1c27.4-13,67.3-19.2,130.9-23.6c72.2-5,93.7-46.6,99.6-77H-1.3z"/>
			<g class="st7">
				<defs>
					<rect id="SVGID_5_" x="-1.3" y="-1.5" class="st7" width="735.6" height="500.3"/>
				</defs>
				<clipPath id="SVGID_6_">
					<use xlink:href="#SVGID_5_"  style="overflow:visible;"/>
				</clipPath>
				<g class="st8">
					<radialGradient id="SVGID_7_" cx="106.3213" cy="501.3183" r="170.7541" gradientUnits="userSpaceOnUse">
						<stop  offset="0" style="stop-color:#FFFFFF"/>
						<stop  offset="0.9946" style="stop-color:#FFFFFF;stop-opacity:0"/>
					</radialGradient>
					<circle class="st9" cx="106.3" cy="501.3" r="170.8"/>
					<radialGradient id="SVGID_8_" cx="748.9515" cy="79.0658" r="170.7539" gradientUnits="userSpaceOnUse">
						<stop  offset="0" style="stop-color:#FFFFFF"/>
						<stop  offset="0.9946" style="stop-color:#FFFFFF;stop-opacity:0"/>
					</radialGradient>
					<circle class="st10" cx="749" cy="79.1" r="170.8"/>
				</g>
			</g>
			<g class="st0">
				<path class="st11" d="M45.7,26.6c0,0.8-0.5,1.5-1.2,1.5h-18c-0.7,0-1.2-0.7-1.2-1.5l0,0c0-0.8,0.5-1.5,1.2-1.5h18
					C45.2,25.1,45.7,25.8,45.7,26.6L45.7,26.6z"/>
				<path class="st11" d="M45.7,34.4c0,0.8-0.5,1.5-1.2,1.5h-18c-0.7,0-1.2-0.7-1.2-1.5l0,0c0-0.8,0.5-1.5,1.2-1.5h18
					C45.2,32.9,45.7,33.6,45.7,34.4L45.7,34.4z"/>
				<path class="st11" d="M45.7,42.2c0,0.8-0.5,1.5-1.2,1.5h-18c-0.7,0-1.2-0.7-1.2-1.5l0,0c0-0.8,0.5-1.5,1.2-1.5h18
					C45.2,40.7,45.7,41.4,45.7,42.2L45.7,42.2z"/>
			</g>
			<g class="st0">
				<linearGradient id="SVGID_9_" gradientUnits="userSpaceOnUse" x1="573.7769" y1="325.6635" x2="594.1232" y2="384.2632">
					<stop  offset="0" style="stop-color:#7256AE"/>
					<stop  offset="0.4193" style="stop-color:#7553AE"/>
					<stop  offset="0.7704" style="stop-color:#804BAE"/>
					<stop  offset="1" style="stop-color:#8B42AE"/>
				</linearGradient>
				<path class="st12" d="M645.1,347.8c0,6-4.1,10.9-9.1,10.9H527c-5,0-9.1-4.9-9.1-10.9l0,0c0-6,4.1-10.9,9.1-10.9h109
					C641,336.9,645.1,341.8,645.1,347.8L645.1,347.8z"/>
				<g class="st1">
					<g>
						<g>
							<g>
								<text transform="matrix(1 0 0 1 562.9131 352.1602)" class="st4 st13 st14">LOGIN</text>
							</g>
						</g>
					</g>
				</g>
				<g class="st1">
					<path class="st15" d="M683.2,210.6c0,8.6-6.5,15.5-14.6,15.5H494.3c-8,0-14.6-7-14.6-15.5l0,0c0-8.6,6.5-15.5,14.6-15.5h174.3
						C676.7,195.1,683.2,202.1,683.2,210.6L683.2,210.6z"/>
					<path class="st15" d="M683.2,260c0,8.6-6.5,15.5-14.6,15.5H494.3c-8,0-14.6-7-14.6-15.5l0,0c0-8.6,6.5-15.5,14.6-15.5h174.3
						C676.7,244.4,683.2,251.4,683.2,260L683.2,260z"/>
					<path class="st16" d="M669.6,210.6c0.5-0.9,0.8-1.9,0.8-3c0-3.4-2.8-6.1-6.1-6.1c-3.4,0-6.1,2.8-6.1,6.1c0,1.1,0.3,2.1,0.8,3
						c-2.3,1.7-3.8,4.5-3.8,7.4v0.7l0.7,0.1c2.7,0.5,5.5,0.7,8.4,0.7c2.9,0,5.7-0.2,8.4-0.7l0.7-0.1l0-0.8
						C673.4,215.1,671.9,212.3,669.6,210.6z M664.2,203.2c2.5,0,4.5,2,4.5,4.5c0,1-0.4,2-0.9,2.7c-0.1,0.1-0.2,0.3-0.3,0.4
						c0,0,0,0,0,0c-0.2,0.2-0.5,0.4-0.7,0.6c-0.1,0-0.1,0.1-0.2,0.1c-0.1,0-0.2,0.1-0.2,0.1c-0.1,0-0.1,0.1-0.2,0.1
						c-0.1,0-0.2,0.1-0.2,0.1c-0.1,0-0.1,0.1-0.2,0.1c-0.1,0-0.2,0.1-0.2,0.1c-0.1,0-0.1,0-0.2,0.1c-0.1,0-0.2,0-0.3,0.1
						c-0.1,0-0.1,0-0.2,0c-0.2,0-0.3,0-0.5,0c-0.2,0-0.3,0-0.5,0c-0.1,0-0.1,0-0.2,0c-0.1,0-0.2,0-0.3-0.1c-0.1,0-0.1,0-0.2-0.1
						c-0.1,0-0.2,0-0.3-0.1c-0.1,0-0.1,0-0.2-0.1c-0.1,0-0.2-0.1-0.2-0.1c-0.1,0-0.1-0.1-0.2-0.1c-0.1,0-0.2-0.1-0.2-0.1
						c-0.1,0-0.1-0.1-0.2-0.1c-0.3-0.2-0.5-0.4-0.8-0.6c0,0,0,0,0,0c-0.1-0.1-0.2-0.2-0.3-0.4c-0.6-0.8-0.9-1.7-0.9-2.7
						C659.8,205.2,661.8,203.2,664.2,203.2z M656.8,217.3c0.2-2.2,1.3-4.1,3-5.4c0,0,0,0,0,0c0.1,0.1,0.2,0.2,0.3,0.3
						c0,0,0.1,0.1,0.1,0.1c0,0,0.1,0.1,0.1,0.1c0.9,0.7,2,1.2,3.1,1.3c0,0,0,0,0,0c0.2,0,0.4,0,0.6,0c0.2,0,0.4,0,0.6,0c0,0,0,0,0,0
						c1.1-0.1,2.2-0.6,3.1-1.3c0,0,0.1-0.1,0.1-0.1c0,0,0.1-0.1,0.1-0.1c0.1-0.1,0.2-0.2,0.4-0.3c0,0,0,0,0,0
						c1.8,1.3,2.9,3.2,3.1,5.4C666.9,218.1,661.6,218.1,656.8,217.3z"/>
					<g>
						<path class="st16" d="M669.8,255.7c0-0.3,0.1-0.6,0.1-0.9c0-3.1-2.5-5.6-5.6-5.6c-3.1,0-5.6,2.5-5.6,5.6c0,0.3,0,0.6,0.1,0.9
							c-0.3,0.1-0.5,0.2-0.7,0.3c-1.3,0.7-1.3,1.9-1.3,3.4v5.3c0,1.6,0,2.8,1.3,3.4c1,0.5,2.7,0.6,6.3,0.6c3.6,0,5.2-0.1,6.3-0.5
							c1.4-0.6,1.4-1.9,1.4-3.3v-5.4C671.8,257.1,671.4,256.2,669.8,255.7z M660.5,254.9c0-2.1,1.7-3.8,3.8-3.8s3.8,1.7,3.8,3.8
							c0,0.2,0,0.4-0.1,0.6c-0.1,0-0.3,0-0.4,0c-0.2,0-0.5,0-0.7,0c0,0,0,0-0.1,0c-0.3,0-0.6,0-0.9,0c0,0-0.1,0-0.1,0
							c-0.2,0-0.5,0-0.7,0c-0.3,0-0.5,0-0.8,0c-1.6,0-2.8,0-3.7,0.1C660.5,255.3,660.5,255.1,660.5,254.9z M670,264.9
							c0,1.4-0.1,1.6-0.3,1.7c-0.7,0.3-2.7,0.4-5.5,0.4c-2.8,0-4.8,0-5.5-0.4c-0.3-0.1-0.3-0.4-0.3-1.8v-5.3c0-1.4,0-1.7,0.3-1.8
							c0.3-0.1,0.7-0.2,1.2-0.3c0.1,0,0.1,0,0.2,0c0.2,0,0.3,0,0.5,0c0.1,0,0.1,0,0.2,0c0.2,0,0.3,0,0.5,0c0.1,0,0.2,0,0.3,0
							c0.2,0,0.4,0,0.6,0c0.1,0,0.3,0,0.4,0c0.1,0,0.3,0,0.4,0c0.1,0,0.3,0,0.4,0c0.3,0,0.5,0,0.8,0c0.3,0,0.5,0,0.8,0
							c0.1,0,0.3,0,0.4,0c0.1,0,0.3,0,0.4,0c0.1,0,0.3,0,0.4,0c0.2,0,0.4,0,0.6,0c0.1,0,0.2,0,0.3,0c0.2,0,0.3,0,0.5,0
							c0.1,0,0.1,0,0.2,0c0.2,0,0.3,0,0.5,0c0.1,0,0.1,0,0.2,0c0.6,0.1,1,0.1,1.2,0.3c0.3,0.1,0.3,0.4,0.3,1.8V264.9z"/>
						<path class="st16" d="M665.8,261.2c0-0.9-0.7-1.6-1.6-1.6c-0.9,0-1.6,0.7-1.6,1.6c0,0.5,0.2,0.9,0.6,1.2l-0.3,2.6h2.6
							l-0.3-2.6C665.5,262.2,665.8,261.8,665.8,261.2z"/>
					</g>
					<text transform="matrix(1 0 0 1 491.0918 215.6353)" class="st16 st13 st17">USERNAME</text>
					<text transform="matrix(1 0 0 1 491.0918 263.9805)" class="st16 st13 st17">PASSWORD</text>
				</g>
				<g class="st1">
					<text transform="matrix(1 0 0 1 502.1846 307.7031)" class="st18 st13 st19">Remember me</text>
					<text transform="matrix(1 0 0 1 601.2715 307.7031)" class="st18 st13 st19">Forgot Password</text>
					<path class="st20" d="M493,296.9c-3.6,0-6.5,2.9-6.5,6.5s2.9,6.5,6.5,6.5c3.6,0,6.5-2.9,6.5-6.5S496.6,296.9,493,296.9z
						 M493,308.2c-2.6,0-4.8-2.1-4.8-4.8s2.1-4.8,4.8-4.8c2.6,0,4.8,2.1,4.8,4.8S495.6,308.2,493,308.2z"/>
					<path class="st21" d="M495.3,303.4c0,1.3-1,2.3-2.3,2.3c-1.3,0-2.3-1-2.3-2.3c0-1.3,1-2.3,2.3-2.3
						C494.3,301.1,495.3,302.1,495.3,303.4z"/>
					<path class="st20" d="M592.3,296.9c-3.6,0-6.5,2.9-6.5,6.5s2.9,6.5,6.5,6.5c3.6,0,6.5-2.9,6.5-6.5S595.9,296.9,592.3,296.9z
						 M592.3,308.2c-2.6,0-4.8-2.1-4.8-4.8s2.1-4.8,4.8-4.8c2.6,0,4.8,2.1,4.8,4.8S594.9,308.2,592.3,308.2z"/>
				</g>
				<g class="st1">
					<text transform="matrix(1 0 0 1 517.6396 391.7783)" class="st18 st13 st19">Don’t have an account yet ?</text>
				</g>
				<text transform="matrix(1 0 0 1 539.3105 406.9229)" class="st22 st13 st19">Create an account</text>
			</g>
			<text transform="matrix(1 0 0 1 54.1934 43.8979)" class="st23 st24 st25">LOGO</text>
			<g class="st0">
				<path class="st26" d="M624.2,129.7c0,23.6-19.1,42.7-42.7,42.7s-42.7-19.1-42.7-42.7c0-23.6,19.1-42.7,42.7-42.7
					S624.2,106.1,624.2,129.7z"/>
				<path class="st27" d="M607.9,147.8c-0.1-7.7-4.5-14.9-11.6-19.2c0.9-2,1.3-4.2,1.3-6.5c0-8.9-7.3-16.2-16.2-16.2
					c-8.9,0-16.2,7.3-16.2,16.2c0,2.3,0.5,4.5,1.3,6.5c-7.1,4.3-11.5,11.5-11.6,19.2l0,1.6l1.5,0.2c8.1,1,16.5,1.5,24.9,1.5
					c8.4,0,16.8-0.5,24.9-1.5l1.5-0.2L607.9,147.8z M581.5,109.5c7,0,12.7,5.7,12.7,12.7c0,2.2-0.5,4.2-1.5,6l-0.1,0.1
					c0,0.1-0.1,0.2-0.1,0.2c-0.2,0.4-0.5,0.8-0.8,1.2c0,0.1-0.1,0.1-0.1,0.2c-0.7,0.8-1.4,1.6-2.2,2.2c0,0-0.1,0.1-0.1,0.1
					c-0.4,0.3-0.8,0.6-1.2,0.8c0,0-0.1,0-0.1,0.1c-0.9,0.5-1.9,0.9-2.9,1.2c-0.1,0-0.2,0-0.3,0.1c-0.4,0.1-0.8,0.2-1.2,0.3
					c-0.1,0-0.2,0-0.4,0.1c-0.5,0.1-1,0.1-1.5,0.1c-0.5,0-1,0-1.5-0.1c-0.1,0-0.2,0-0.4-0.1c-0.4-0.1-0.8-0.1-1.2-0.3
					c-0.1,0-0.2,0-0.3-0.1c-1-0.3-2-0.7-2.9-1.2c0,0-0.1,0-0.1-0.1c-0.4-0.3-0.8-0.5-1.2-0.8c0,0-0.1-0.1-0.1-0.1
					c-0.8-0.6-1.6-1.4-2.2-2.2c0-0.1-0.1-0.1-0.1-0.2c-0.3-0.4-0.6-0.8-0.8-1.2c0-0.1-0.1-0.2-0.1-0.2l-0.1-0.1
					c-1-1.8-1.5-3.8-1.5-6C568.8,115.2,574.5,109.5,581.5,109.5z M558.6,146.3c0.6-5.9,4.1-11.2,9.8-14.6c0,0.1,0.1,0.1,0.2,0.2
					c0.3,0.4,0.6,0.7,0.9,1.1c0.1,0.1,0.2,0.2,0.3,0.3c0.4,0.4,0.7,0.8,1.1,1.1c0,0,0.1,0.1,0.1,0.1c0.9,0.8,2,1.5,3.1,2.1
					c0,0,0.1,0,0.1,0.1c0.5,0.2,1,0.5,1.5,0.7c0.1,0,0.2,0.1,0.3,0.1c0.5,0.2,0.9,0.3,1.4,0.4c0.1,0,0.3,0.1,0.4,0.1
					c0.5,0.1,0.9,0.2,1.4,0.3c0.1,0,0.3,0,0.4,0.1c0.6,0.1,1.2,0.1,1.8,0.1s1.2,0,1.8-0.1c0.1,0,0.3,0,0.4-0.1
					c0.5-0.1,0.9-0.1,1.4-0.3c0.1,0,0.3-0.1,0.4-0.1c0.5-0.1,0.9-0.3,1.4-0.4c0.1,0,0.2-0.1,0.3-0.1c0.5-0.2,1-0.4,1.5-0.7
					c0,0,0.1,0,0.1-0.1c1.1-0.6,2.1-1.3,3.1-2.1c0,0,0.1-0.1,0.1-0.1c0.4-0.3,0.8-0.7,1.1-1.1c0.1-0.1,0.2-0.2,0.3-0.3
					c0.3-0.4,0.6-0.7,0.9-1.1c0.1-0.1,0.1-0.1,0.2-0.2c5.7,3.4,9.2,8.7,9.8,14.6C589.5,148,573.5,148,558.6,146.3z"/>
			</g>
			<g>
				
					<radialGradient id="SVGID_10_" cx="215.9408" cy="263.4437" r="165.5954" gradientTransform="matrix(1.0211 0 0 1 -5.4876 0)" gradientUnits="userSpaceOnUse">
					<stop  offset="5.376340e-03" style="stop-color:#FFFFFF;stop-opacity:0"/>
					<stop  offset="1" style="stop-color:#A9D8E1"/>
				</radialGradient>
				<path class="st28" d="M63.8,168.2c16.1-19.1,56.1-58,168.8-53.3c122.4,5.1,149.5,64,152.6,70.5c5.8,12.2,8.9,25,9.2,38.5
					c0.4,25.9,1,48.4,4.3,75c12.1,97.3-106.2,111.9-184,113.4c-138.2,2.5-160.2-44-168.4-62.5c-12.8-28.9-17.4-61.8-15.4-93.1
					C32.9,225.8,43.4,192.5,63.8,168.2z"/>
				
					<radialGradient id="SVGID_11_" cx="218.2041" cy="350.1959" r="133.6205" gradientTransform="matrix(1.0211 0 0 1 -5.4876 0)" gradientUnits="userSpaceOnUse">
					<stop  offset="5.376340e-03" style="stop-color:#FFFFFF;stop-opacity:0"/>
					<stop  offset="1" style="stop-color:#A9D8E1"/>
				</radialGradient>
				<path class="st29" d="M198.2,288.8c-67.6-4.1-122,9-163.1,26.3c2.6,12,6.3,23.6,11.2,34.7c8.2,18.5,30.2,65,168.4,62.5
					c75.8-1.4,189.9-15.3,184.7-105.9C338.1,321.6,349.1,297.8,198.2,288.8z"/>
				<g class="st7">
					
						<image style="overflow:visible;" width="629" height="389" xlink:href="AA7F5BE9.png"  transform="matrix(0.24 0 0 0.24 56.6 333.84)">
					</image>
				</g>
				<g class="st7">
					
						<image style="overflow:visible;" width="523" height="372" xlink:href="AA7F5BEF.png"  transform="matrix(0.24 0 0 0.24 153.56 351.6)">
					</image>
				</g>
				<g class="st30">
					
						<image style="display:inline;overflow:visible;" width="523" height="371" xlink:href="AA7F5BEA.png"  transform="matrix(0.24 0 0 0.24 7.16 283.2)">
					</image>
				</g>
				<g class="st7">
					
						<image style="overflow:visible;" width="523" height="372" xlink:href="AA7F5BEB.png"  transform="matrix(0.24 0 0 0.24 306.2 279.6)">
					</image>
				</g>
				<g class="st7">
					
						<image style="overflow:visible;" width="655" height="389" xlink:href="AA7F5BE6.png"  transform="matrix(0.24 0 0 0.24 230.12 333.84)">
					</image>
				</g>
				<linearGradient id="SVGID_12_" gradientUnits="userSpaceOnUse" x1="292.5738" y1="203.5863" x2="344.1655" y2="122.7595">
					<stop  offset="5.376340e-03" style="stop-color:#FFFFFF;stop-opacity:0"/>
					<stop  offset="1" style="stop-color:#A9D8E1"/>
				</linearGradient>
				<path class="st31" d="M385.2,185.4c-3.1-6.5-30.2-65.4-152.6-70.5c-3.7-0.2-7.4-0.3-10.9-0.3c-6.1,17.2-6.7,40.3,22.4,54
					c50.1,23.7,89.8-1.1,106.3,47.4c6.7,19.6,24.5,28.2,44.5,27.6c-0.2-6.4-0.3-12.9-0.4-19.7C394.2,210.5,391.1,197.6,385.2,185.4z
					"/>
				<g>
					<g>
						<path class="st32" d="M289.5,370c0,0,3.5,0,3.3,3.6c-0.2,3.6,0.6,7.4-6.1,8.1c-6.7,0.7-19.7,3.3-19.9-0.5
							c-0.2-3.7,10.9-10.8,16-11.4C287.9,369.2,289.5,370,289.5,370z"/>
						<path class="st33" d="M280.9,363.4c0,0,0.3,6.7,0.4,8c0.1,1.4,9.3,1.6,9.3-0.4c0.1-2,0.2-7.8,0.2-7.8L280.9,363.4z"/>
					</g>
					<g>
						<path class="st32" d="M339.4,352c0,0,2.2-2.7,4.9-0.3c2.7,2.4,6.1,4.2,2.4,9.9c-3.7,5.6-10,17.3-13,15.1
							c-3-2.2-1.4-15.3,1.3-19.6C337.8,352.7,339.4,352,339.4,352z"/>
						<path class="st33" d="M328.9,354.6c0,0,5.4,4,6.5,4.8c1.1,0.8,7.1-6.2,5.6-7.5c-1.5-1.3-5.9-5.1-5.9-5.1L328.9,354.6z"/>
					</g>
					<path class="st34" d="M276.2,272.6c0,0,1.3,86,3.2,94.2c0,0,8.4,2.6,12.9-0.2l1.7-69.3c0,0,2.5,0.3,4.8-0.3c0,0,1,33,6.3,39.7
						c5.4,6.7,25.7,21.3,25.7,21.3s6.1-4.2,7.2-10.8c0,0-19.2-14.6-19.9-24.4c-0.6-9.8-0.9-51.2-0.9-51.2L276.2,272.6z"/>
					<path class="st35" d="M317.2,281.8c-0.1-6.1-0.1-10.3-0.1-10.3l-40.9,1.1c0,0,0,1.8,0.1,4.9
						C283.2,281.1,296.2,285.3,317.2,281.8z"/>
					<path class="st34" d="M283.1,177.3c0,0-5.2,1.6-5.7-6.6c-0.5-8.6,5.5-19.2,18.3-15.7c0,0,11.7-3.3,19.2,5.2
						c7.4,8.5,5.7,37.6-8.5,37.1C288.8,196.7,283.1,177.3,283.1,177.3z"/>
					<path class="st32" d="M319.6,273.1c0.7-0.3,4.6-42.1-1-61.8c-4.4-15.5-44.5-16-47,5.8c-2.1,17.8-1.3,56-1.3,56
						S297.4,282.9,319.6,273.1z"/>
					<path class="st36" d="M320,248.6l-35.2,2.7c0,0,13.6,6.1,36.3,6c0.1-1.6,0.2-3.3,0.2-5.1C320.5,251.1,319.8,249.8,320,248.6z"
						/>
					<path class="st33" d="M325.3,231c0,0-0.2,18.6-4.3,22.1c-4.1,3.5-38.7-1.6-38.7-1.6l-1.1-5.7c0,0,29.5,1,30.6-1
						c1.1-1.9,2.2-14.1,2.2-14.1L325.3,231z"/>
					<path class="st37" d="M314.1,230.9l0.1-0.2l11.2,0.3c0,0,0,2.7-0.3,6.2c-6.1-1-10-4-11.1-5C314,231.6,314,231.1,314.1,230.9z"
						/>
					<path class="st32" d="M312,203.8c0,0,16.5,6.9,15.6,28.7c0,0-7.8,1.4-17.6-1C310,231.5,309.3,206.1,312,203.8z"/>
					<path class="st36" d="M272.8,212.4c0.3-0.8,0.7-1.5,1.2-2.2c7.1-11.1,27.3-12.5,38-6.4c0,0,4.8,2,9.1,7.2
						C320.5,211.2,294.1,223.1,272.8,212.4z"/>
					<path class="st37" d="M303.9,195.6l-0.5,9.8c0,0-3.5,3.5-7.8,2.6c-4.6-0.9-5.6-2.8-5.6-2.8l0.3-10.9L303.9,195.6z"/>
					<path class="st38" d="M303.5,203.9c-1.6,0-3.3-0.3-5.1-0.8c-3.7-1-6.3-2.9-8.2-5.3l0.1-3.5l3.4,0.3l10.1,2.6L303.5,203.9z"/>
					<path class="st33" d="M310.4,178.4l0.5-5.3c-9.4-0.7-14.1-3.8-16.2-5.4c0.1-0.1-5.4,4.7-11.7,5c0,0-6.6,27.3,12.6,27.9
						c10,0.3,13.8-6,15.1-12.3c2.6,0,4.7-1.5,4.8-5.1C315.7,177.8,310.4,178.4,310.4,178.4z"/>
					<path class="st37" d="M313.9,181c0,0-1,0.1-1.8,1c0.5,0.3,1.4,1,1.4,2.8c0,0-0.4-1.2-1.9-1.9c-0.4,0.8-0.7,1.9-0.6,3.6
						C310.9,186.4,309.1,179.7,313.9,181z"/>
					<path class="st34" d="M106.1,222.4c0,0-17.9-3.1-18.2-20.5c-0.2-17.5,7.2-22.4,10.4-34.9c4.5-17.9,35.6-22.4,44.6-6.1
						c9,16.3,0,25.7,10.6,35.4C164.2,205.9,156.9,236.6,106.1,222.4z"/>
					<path class="st35" d="M138.2,183.5c-3.1-12.7-26.9,9-26.9,9c-0.4,0.7-4.7,16.9,8.4,32.9c38.1,5.4,43.3-20.1,34-28.9
						C147.6,194.5,140,190.8,138.2,183.5z"/>
					<path class="st39" d="M120.1,363l4.9,2.7c0,0,2.1,5.6-0.3,9.5c-2.4,4-16,12.4-20.5,7.5c-4.4-4.9,4.6-14.1,13.8-16.8L120.1,363z
						"/>
					<path class="st33" d="M114.9,322.7l2.7,44.6c0,0-7.5,2.9-7,7.1c0.5,4.3,13.2,0.2,14.3-4.6c1.1-4.8,0.2-45.2,0.2-45.2
						L114.9,322.7z"/>
					<path class="st39" d="M142.1,362l-4.7,3c0,0-1.7,5.7,0.9,9.5c2.6,3.8,16.7,11.4,20.8,6.2c4.1-5.2-5.4-13.8-14.7-16L142.1,362z"
						/>
					<path class="st33" d="M144.9,321.5l0,44.7c0,0,7.6,2.4,7.4,6.7c-0.2,4.3-13.1,0.9-14.5-3.7c-1.4-4.7-2.9-45.1-2.9-45.1
						L144.9,321.5z"/>
					<path class="st37" d="M125,324.6l-10.2-1.9l1,16.1c3.2-0.2,6.4-0.6,9.4-1.2C125.2,330.2,125,324.6,125,324.6z"/>
					<path class="st37" d="M134.9,324c0,0,0.2,4.6,0.4,10.8c5.5-1.8,9.2-3.6,9.2-3.6l0.4-0.6l0-9.2L134.9,324z"/>
					<path class="st39" d="M104.6,264.6c0,0-6,51.1-0.3,61.2c5.7,10.2,47,5.7,50.8,1.3c6.3-7.6-3.2-62.7-3.2-62.7l-21.3-3.6
						L104.6,264.6z"/>
					<path class="st40" d="M104,269.5c20.1,7.4,42.1,3.1,48.7,0.5c-0.5-3.5-0.9-5.6-0.9-5.6l-21.3-3.6l-26,3.8
						C104.6,264.6,104.4,266.5,104,269.5z"/>
					<path class="st41" d="M104.6,264.6c-0.7-0.3-6.4-28.8-0.8-48.5c4.4-15.5,44.5-16,47,5.8c2.1,17.8,1.1,42.5,1.1,42.5
						S126.8,274.5,104.6,264.6z"/>
					<path class="st42" d="M103.7,261.8c25,0.8,33.8-5.7,33.8-5.7l-35.2-2.7C102.8,256.9,103.3,259.9,103.7,261.8z"/>
					<path class="st33" d="M97,235.8c0,0,0.2,18.6,4.3,22.1c4.1,3.5,38.7-1.6,38.7-1.6l1.1-5.7c0,0-29.5,1-30.6-1
						c-1.1-1.9-2.2-14.1-2.2-14.1L97,235.8z"/>
					<path class="st37" d="M108.2,235.7l-0.1-0.2L97,235.8c0,0,0,2.7,0.3,6.2c6.1-1,10-4,11.1-5
						C108.3,236.4,108.3,235.9,108.2,235.7z"/>
					<path class="st41" d="M110.3,208.5c0,0-16.5,6.9-15.6,28.7c0,0,7.8,1.4,17.6-1C112.3,236.2,113,210.9,110.3,208.5z"/>
					<path class="st36" d="M149.5,217.2c-0.3-0.8-0.7-1.5-1.2-2.2c-7.1-11.1-27.3-12.5-38-6.4c0,0-4.8,2-9.1,7.2
						C101.8,216,128.2,227.9,149.5,217.2z"/>
					<path class="st37" d="M118.4,199.5l0.5,10c0,0,3.6,3.6,8,2.7c4.7-0.9,5.8-2.8,5.8-2.8l-0.4-11.2L118.4,199.5z"/>
					<path class="st38" d="M118.8,208c1.6,0,3.4-0.3,5.3-0.8c3.8-1.1,6.5-3,8.4-5.4l-0.1-3.6l-3.4,0.3l-10.4,2.7L118.8,208z"/>
					<path class="st33" d="M137.5,175.7c0,0-7.6,3.5-15.8-4.7c0,0-1.7,7.2-10.7,11.9c0,0-5-0.3-4.6,5c0.3,3.4,2.4,4.7,4.9,4.6
						c1.6,6,5.6,11.9,15.1,10.9C143.2,201.4,137.5,175.7,137.5,175.7z"/>
					<path class="st4" d="M138.5,217.9c0,0-4.1,64.5,3.9,73.9c5.1,6,136.4,4.1,138.5-0.5c2.9-6.3,4.3-74.9,0.5-77.9
						C277.7,210.4,138.1,213.3,138.5,217.9z"/>
					<text transform="matrix(1 0 0 1 171.2363 252.2178)" class="st43 st44 st45">HELLO</text>
					<text transform="matrix(1 0 0 1 161.6582 272.9385)" class="st46 st47 st48">LOREM IPSUM</text>
					<path class="st34" d="M113.5,179.2c0,0-0.6,8-1.2,7.7c0,0-1.4-3.1-1.2-5L113.5,179.2z"/>
					<path class="st33" d="M133.5,250.7c0,0,3.3-0.6,3.6-3.2c0.3-2.5-0.3-4.7,1.3-4.9c1.6-0.2,0.6,5.1,2.4,5.7
						c1.8,0.6,7.2-0.3,7.4,2s-2.3,7.5-10.6,6.1L133.5,250.7z"/>
					<path class="st33" d="M157.7,211.2c-3.8,0.4-3.8,2.3-6.2,3c-2.5,0.6-4.2,0.4-4.2,2c0,1.6,5.1,0,6,1.7c0.9,1.7,0.6,7.2,2.9,7.1
						c2.3-0.1,8.6-3,6.2-11.1C162.3,213.9,161.5,210.8,157.7,211.2z"/>
					<path class="st33" d="M268.8,208.1c3.8,0.4,3.8,2.3,6.2,3c2.5,0.6,4.2,0.4,4.2,2c0,1.6-5.1,0-6,1.7c-0.9,1.7-0.6,7.2-2.9,7.1
						c-2.3-0.1-8.6-3-6.2-11.1C264.1,210.7,264.9,207.6,268.8,208.1z"/>
					<path class="st34" d="M308.7,171.6c0,0-0.5,8.6-0.5,9.3c0,0,1,2.3,2.2-2.5l2.4-4.9l-1-3.1"/>
					<path class="st33" d="M288.8,245.9c0,0-3.3-0.6-3.6-3.2c-0.3-2.5,0.3-4.7-1.3-4.9c-1.6-0.2-0.6,5.1-2.4,5.7
						c-1.8,0.6-7.2-0.3-7.4,2c-0.6,5.9,2.3,7.5,10.6,6.1L288.8,245.9z"/>
				</g>
				<g>
					<path class="st4" d="M360.9,258.4c0,0-6.1-1.8-4.7-3.2c1.3-1.5,3.8,0.5,3.8,0.5s-0.6-4.2,0.8-3.7c1.4,0.5,1,3.9,1,3.9
						s2.4-3,3.3-1.6C366,255.7,362.6,258.2,360.9,258.4z"/>
					<path class="st4" d="M379.8,273.4c0,0-5.7-2.8-4.1-4c1.6-1.2,3.7,1.1,3.7,1.1s0.2-4.2,1.5-3.5c1.3,0.7,0.3,4,0.3,4
						s2.9-2.6,3.5-1C385.3,271.6,381.5,273.5,379.8,273.4z"/>
					<path class="st49" d="M350.3,299l3.7,22.5c0.6,3,5.1,5,13.6,5.1c8.5,0.1,12.7-1.7,13.8-4.7l4.1-22.7L350.3,299z"/>
					<path class="st50" d="M387.3,294.2c-0.1,3.3-8.7,5.9-19.3,5.8c-10.6-0.2-19.2-3-19.1-6.3c0.1-3.3,8.7-5.9,19.3-5.8
						C378.8,288,387.3,290.9,387.3,294.2z"/>
					<path class="st51" d="M350,295.7c2.6,2.4,9.7,4.1,18,4.3c8.3,0.1,15.4-1.4,18.1-3.7c-2.6-2.4-9.7-4.1-18-4.3
						C359.8,291.9,352.7,293.4,350,295.7z"/>
					<path class="st52" d="M369.2,300.5c0,0,2.1-29.6,10.9-28.3c8.6,1.3,1.1,30.6,1.1,30.6S374.9,303.7,369.2,300.5z"/>
					<path class="st53" d="M372.6,301.1c0,0,4.3-29.2,7.4-28.9c3.1,0.3-3.2,29.7-3.2,29.7S374.3,303.5,372.6,301.1z"/>
					<path class="st53" d="M353.5,300.6c0,0-5.1-42.3,7.6-42.8c12.5-0.5,9.9,42.7,9.9,42.7S362.3,303.6,353.5,300.6z"/>
					<path class="st52" d="M358.4,300.6c0,0-1.9-42.3,2.6-42.7c4.4-0.5,3.6,42.7,3.6,42.7S361.5,303.6,358.4,300.6z"/>
					<path class="st54" d="M382.4,307.6c-2.3,0-5.2,1.9-7.2,3.5c-2-1.5-4.9-3.3-7.2-3.2c-2.3,0.1-5.2,2-7.2,3.5
						c-1.7-1.4-4.3-3.3-6.2-3.9c-0.9-0.3-1.9-0.3-2.8,0l0.9,5.3c0.2-0.1,0.3-0.2,0.5-0.2c1.3,0.5,4,2.6,5.9,4.2l1.8,1.5l1.7-1.5
						c2.1-1.8,4.8-3.6,5.6-3.7c0.8,0,3.4,1.6,5.3,3.3l1.8,1.5l1.7-1.6c2-1.8,4.6-3.5,5.3-3.6c0.2,0,0.4,0.1,0.7,0.2l1-5.3
						C383.4,307.7,382.8,307.6,382.4,307.6z"/>
					<path class="st54" d="M368,300c-10.6-0.2-19.2-3-19.1-6.3l-0.1,4.7c-0.1,3.3,8.5,6.2,19.1,6.3c10.6,0.2,19.2-2.4,19.3-5.8
						l0.1-4.7C387.2,297.6,378.6,300.2,368,300z"/>
				</g>
				<g>
					<g>
						<path class="st49" d="M53.5,304.7l3.4,20.7c0.6,2.7,4.7,4.6,12.5,4.7c7.8,0.1,11.7-1.6,12.6-4.3l3.8-20.9L53.5,304.7z"/>
						<path class="st50" d="M87.6,300.3c0,3.1-8,5.4-17.7,5.3c-9.7-0.1-17.6-2.8-17.6-5.8c0-3.1,8-5.4,17.7-5.3
							C79.8,294.6,87.6,297.2,87.6,300.3z"/>
						<path class="st51" d="M53.3,301.7c2.4,2.2,8.9,3.8,16.5,3.9c7.6,0.1,14.1-1.3,16.6-3.4c-2.4-2.2-8.9-3.8-16.5-3.9
							C62.3,298.2,55.8,299.6,53.3,301.7z"/>
						<path class="st53" d="M84.5,298.8c-0.1,2-0.6,4.3-1.6,6.2c-1.5,0.2-3.1,0.5-4.6,0.7c-1.7,0-3.5,0.1-5.2,0.1
							c-0.1-1.4-0.2-2.9,0.1-4.3c0.4-1.7,0.6-3.5,1.1-5.2c0.7-2.5,2.5-4.7,3.2-7.2c0.6-2.1,0.6-4.3,0.7-6.5c0.1-1.7,0.7-3.6,1.8-4.9
							c1-1.2,2.7-1.7,3.4-3.1c0.8-1.6,0.8-3.5,1.3-5.1c0.5-1.7,0.9-4,2.1-5.3c0.9-0.9,2.2-1.9,3.4-1.4c1.3,0.5,1.5,2.1,1.7,3.4
							c0.2,1.7,0.7,3.8,0.6,5.5c0,2.1-1.5,3.6-2.4,5.3c-1.8,3.4,1,7.8-0.9,11.2c-1,1.8-2.5,3.4-3.5,5.2
							C84.8,295,84.5,297,84.5,298.8z"/>
						<path class="st55" d="M78.4,305.4c0.1-0.4,9.3-27.6,7.8-27.8c-1.5-0.2-9.8,28.1-9.8,28.1"/>
						<path class="st53" d="M55.7,298.8c0.1,2,0.6,4.3,1.6,6.2c1.5,0.2,3.1,0.5,4.6,0.7c1.7,0,3.5,0.1,5.2,0.1
							c0.1-1.4,0.2-2.9-0.1-4.3c-0.4-1.7-0.6-3.5-1.1-5.2c-0.7-2.5-2.5-4.7-3.2-7.2c-0.6-2.1-0.6-4.3-0.7-6.5
							c-0.1-1.7-0.7-3.6-1.8-4.9c-1-1.2-2.7-1.7-3.4-3.1c-0.8-1.6-0.8-3.5-1.3-5.1c-0.5-1.7-0.9-4-2.1-5.3c-0.9-0.9-2.2-1.9-3.4-1.4
							c-1.3,0.5-1.5,2.1-1.7,3.4c-0.2,1.7-0.7,3.8-0.6,5.5c0,2.1,1.5,3.6,2.4,5.3c1.8,3.4-1,7.8,0.9,11.2c1,1.8,2.5,3.4,3.5,5.2
							C55.3,295,55.6,297,55.7,298.8z"/>
						<path class="st52" d="M67.4,308.1c-3.7-2.9-3.9-8.4-2.7-12.5c0.5-1.9,0.9-4,0.5-6c-0.4-2.2-1.5-4.4-1.9-6.6
							c-0.8-4.2,3.6-7.9,2.8-12c-0.4-2.1-1.4-4.2-0.8-6.3c0.6-1.8,1.7-3.8,2.5-5.5c0.6-1.3,1.4-2.9,2.9-3c1.4-0.1,2.4,1.4,3.1,2.6
							c0.9,1.8,0.4,4.3,0.4,6.2c0,1.9-0.6,3.9-0.3,5.8c0.2,1.7,1.8,2.8,2.5,4.4c0.7,1.7,0.7,3.9,0.2,5.7c-0.6,2.3-1.3,4.6-1.4,7
							c-0.1,2.9,1,5.7,0.9,8.5c0,1.9-0.4,3.9-0.6,5.8c-0.2,2.4-1.3,4.5-2.3,6.7"/>
						<path class="st55" d="M69.4,307.2c0,0-1-41,0.5-41.1c1.5-0.1,1.8,41.3,1.8,41.3"/>
						<path class="st55" d="M61.8,305.4c-0.1-0.4-9.3-27.6-7.8-27.8c1.5-0.2,9.8,28.1,9.8,28.1"/>
						<path class="st54" d="M69.8,305.6c-9.7-0.1-17.6-2.8-17.6-5.8l-0.1,4.3c0,3.1,7.8,5.7,17.6,5.8c9.7,0.1,17.7-2.2,17.7-5.3
							l0.1-4.3C87.5,303.4,79.6,305.8,69.8,305.6z"/>
					</g>
					<path class="st54" d="M83.3,319c-4.6,1.9-9.8-0.2-12.7-4.9c-0.5-0.8-1.5-0.9-2.1-0.2c-3.5,3.4-8.1,6.1-12.6,5.1l0.5,2.9
						c4.6,0.6,9.1-1.6,12.9-5c3.5,4.7,8.6,6.8,13.5,5.3L83.3,319z"/>
					<path class="st54" d="M60.5,314.5c0,0.9-0.8,1.7-1.7,1.7c-0.9,0-1.7-0.8-1.7-1.7c0-0.9,0.8-1.7,1.7-1.7
						C59.7,312.8,60.5,313.5,60.5,314.5z"/>
					<path class="st54" d="M81.3,314.5c0,0.9-0.8,1.7-1.7,1.7c-0.9,0-1.7-0.8-1.7-1.7c0-0.9,0.8-1.7,1.7-1.7
						C80.6,312.8,81.3,313.5,81.3,314.5z"/>
					<path class="st54" d="M70.3,322.8c0,0.9-0.8,1.7-1.7,1.7c-0.9,0-1.7-0.8-1.7-1.7c0-0.9,0.8-1.7,1.7-1.7
						C69.6,321.1,70.3,321.9,70.3,322.8z"/>
				</g>
				<g>
					<path class="st52" d="M203.2,343.2c0,0-2.4,11.9,2,12.7c4.4,0.8,7.3,0.3,7.3,0.3l0.2,4.6c0,0-8.1,2.9-12.5,0.2
						c-4.4-2.7-7.3-17.5-4.1-21C199.3,336.4,203.3,337.6,203.2,343.2z"/>
					<path class="st52" d="M223.2,350.2c0,0,6.2,1.3,6.4-3.1c0.5-8.3,1.8-8.8,4.2-8.6c5.4,0.3,4.4,14.2-0.7,16.1
						c-5.1,1.9-10.3,0.2-10.3,0.2"/>
					<path class="st49" d="M200.5,374.1l3.4,20.7c0.6,2.7,4.7,4.6,12.5,4.7c7.8,0.1,11.7-1.6,12.6-4.3l3.8-20.9L200.5,374.1z"/>
					<path class="st50" d="M234.5,369.7c0,3.1-8,5.4-17.7,5.3c-9.7-0.1-17.6-2.8-17.6-5.8c0-3.1,8-5.4,17.7-5.3
						C226.7,364.1,234.5,366.7,234.5,369.7z"/>
					<path class="st51" d="M200.2,371.1c2.4,2.2,8.9,3.8,16.5,3.9c7.6,0.1,14.1-1.3,16.6-3.4c-2.4-2.2-8.9-3.8-16.5-3.9
						C209.2,367.6,202.7,369,200.2,371.1z"/>
					<path class="st53" d="M212.3,376.8c0,0-8.3-29.5-2.2-41.4c5.1-9.8,15.2-3.1,14.8,10.3c-0.5,15.1-2.9,31.5-2.9,31.5L212.3,376.8
						z"/>
					<path class="st54" d="M216.7,375c-9.7-0.1-17.6-2.8-17.6-5.8l-0.1,4.3c0,3.1,7.8,5.7,17.6,5.8c9.7,0.1,17.7-2.2,17.7-5.3
						l0.1-4.3C234.4,372.8,226.5,375.2,216.7,375z"/>
					<path class="st4" d="M211.6,338.1c-0.5-1-1-1.9-1.5-2.9c-0.4-0.8-1.6-0.1-1.2,0.7c0.5,1,1,1.9,1.5,2.9
						C210.9,339.6,212,338.9,211.6,338.1z"/>
					<path class="st4" d="M216.4,338.2c-0.5,0.4-1,0.8-1.5,1.2c-0.7,0.5,0,1.7,0.7,1.2c0.5-0.4,1-0.8,1.5-1.2
						C217.8,338.9,217.1,337.7,216.4,338.2z"/>
					<path class="st4" d="M213.1,331.3c0.2,0.6,0.6,1.2,0.8,1.8c0.3,0.8,1.6,0.4,1.3-0.4c-0.2-0.6-0.6-1.2-0.8-1.8
						C214.1,330.1,212.8,330.5,213.1,331.3z"/>
					<path class="st4" d="M222.5,339.8c-0.6,0.3-1.2,0.6-1.9,0.8c-0.8,0.2-0.5,1.5,0.4,1.3c0.8-0.2,1.5-0.6,2.2-0.9
						C224,340.5,223.3,339.4,222.5,339.8z"/>
					<path class="st4" d="M221,333.4c-0.6,0.4-1.2,0.8-1.6,1.4c-0.5,0.7,0.7,1.4,1.2,0.7c0.3-0.4,0.7-0.7,1.1-0.9
						C222.4,334.1,221.7,332.9,221,333.4z"/>
					<path class="st4" d="M209.6,352.1c-0.5-1-1-1.9-1.5-2.9c-0.4-0.8-1.6-0.1-1.2,0.7c0.5,1,1,1.9,1.5,2.9
						C208.8,353.6,210,352.9,209.6,352.1z"/>
					<path class="st4" d="M215.5,352.9c-0.5,0.4-1,0.8-1.5,1.2c-0.7,0.5,0,1.7,0.7,1.2c0.5-0.4,1-0.8,1.5-1.2
						C216.9,353.6,216.2,352.4,215.5,352.9z"/>
					<path class="st4" d="M211.4,344.2c0.2,0.6,0.6,1.2,0.8,1.8c0.3,0.8,1.6,0.4,1.3-0.4c-0.2-0.6-0.6-1.2-0.8-1.8
						C212.4,343,211.1,343.4,211.4,344.2z"/>
					<path class="st4" d="M217.4,358.9c0.2,0.6,0.6,1.2,0.8,1.8c0.3,0.8,1.6,0.4,1.3-0.4c-0.2-0.6-0.6-1.2-0.8-1.8
						C218.4,357.6,217.1,358,217.4,358.9z"/>
					<path class="st4" d="M222.8,354.7c-0.6,0.3-1.2,0.6-1.9,0.8c-0.8,0.2-0.5,1.5,0.4,1.3c0.8-0.2,1.5-0.6,2.2-0.9
						C224.3,355.4,223.6,354.3,222.8,354.7z"/>
					<path class="st4" d="M220.8,347.2c-0.6,0.4-1.2,0.8-1.6,1.4c-0.5,0.7,0.7,1.4,1.2,0.7c0.3-0.4,0.7-0.7,1.1-0.9
						C222.2,347.9,221.5,346.7,220.8,347.2z"/>
					<path class="st4" d="M212.4,366.8c-0.8-0.8-1.6-1.5-2.3-2.3c-0.6-0.6-1.5,0.4-0.9,1c0.8,0.8,1.6,1.5,2.3,2.3
						C212.1,368.5,213,367.4,212.4,366.8z"/>
					<path class="st4" d="M215.6,370c-0.5,0.4-1,0.8-1.5,1.2c-0.7,0.5,0,1.7,0.7,1.2c0.5-0.4,1-0.8,1.5-1.2
						C217.1,370.7,216.4,369.5,215.6,370z"/>
					<path class="st4" d="M211.7,359.8c0.2,0.6,0.6,1.2,0.8,1.8c0.3,0.8,1.6,0.4,1.3-0.4c-0.2-0.6-0.6-1.2-0.8-1.8
						C212.7,358.6,211.4,359,211.7,359.8z"/>
					<g>
						<path class="st4" d="M200.7,358.7c-0.6,0.1-1.3,0.2-1.9,0.3c-0.9,0.1-0.8,1.4,0,1.4c0.6-0.1,1.3-0.2,1.9-0.3
							C201.6,360,201.6,358.6,200.7,358.7z"/>
						<path class="st4" d="M197.8,338.1c0.2,0.6,0.6,1.2,0.8,1.8c0.3,0.8,1.6,0.4,1.3-0.4c-0.2-0.6-0.6-1.2-0.8-1.8
							C198.8,336.9,197.5,337.3,197.8,338.1z"/>
						<path class="st4" d="M203.8,353.1c-0.6,0.3-1.2,0.6-1.9,0.8c-0.8,0.2-0.5,1.5,0.4,1.3c0.8-0.2,1.5-0.6,2.2-0.9
							C205.3,353.9,204.6,352.7,203.8,353.1z"/>
						<path class="st4" d="M202.7,346c-0.6,0.4-1.2,0.8-1.6,1.4c-0.5,0.7,0.7,1.4,1.2,0.7c0.3-0.4,0.7-0.7,1.1-0.9
							C204.1,346.6,203.4,345.5,202.7,346z"/>
						<path class="st4" d="M202.8,340.2c-0.6,0.4-1.2,0.8-1.6,1.4c-0.5,0.7,0.7,1.4,1.2,0.7c0.3-0.4,0.7-0.7,1.1-0.9
							C204.2,340.9,203.5,339.7,202.8,340.2z"/>
						<path class="st4" d="M197,343.3c-0.8-0.8-1.6-1.5-2.3-2.3c-0.6-0.6-1.5,0.4-0.9,1c0.8,0.8,1.6,1.5,2.3,2.3
							C196.7,345,197.6,343.9,197,343.3z"/>
						<path class="st4" d="M196.9,347.6c0.2,0.6,0.6,1.2,0.8,1.8c0.3,0.8,1.6,0.4,1.3-0.4c-0.2-0.6-0.6-1.2-0.8-1.8
							C197.8,346.4,196.5,346.8,196.9,347.6z"/>
						<path class="st4" d="M204.2,358.4c0.2,0.6,0.6,1.2,0.8,1.8c0.3,0.8,1.6,0.4,1.3-0.4c-0.2-0.6-0.6-1.2-0.8-1.8
							C205.1,357.1,203.8,357.5,204.2,358.4z"/>
						<path class="st4" d="M195.4,353.7c0.5,0.4,1.1,0.7,1.6,1.1c0.7,0.5,1.6-0.5,0.9-1c-0.5-0.4-1.1-0.7-1.6-1.1
							C195.5,352.2,194.7,353.2,195.4,353.7z"/>
					</g>
					<path class="st4" d="M231,354.4c0.5,0.4,0.9,0.9,1.4,1.4c0.6,0.6-0.2,1.7-0.8,1.1c-0.5-0.4-0.9-0.9-1.4-1.4
						C229.5,354.8,230.4,353.8,231,354.4z"/>
					<path class="st4" d="M234.8,338.2c-0.2,0.6-0.6,1.2-0.8,1.8c-0.3,0.8-1.6,0.4-1.3-0.4c0.2-0.6,0.6-1.2,0.8-1.8
						C233.8,337,235.1,337.4,234.8,338.2z"/>
					<path class="st4" d="M227,349.6c0.6,0.3,1.2,0.6,1.9,0.8c0.8,0.2,0.5,1.5-0.4,1.3c-0.8-0.2-1.5-0.6-2.2-0.9
						C225.5,350.4,226.2,349.2,227,349.6z"/>
					<path class="st4" d="M230,346.1c0.6,0.4,1.2,0.8,1.6,1.4c0.5,0.7-0.7,1.4-1.2,0.7c-0.3-0.4-0.7-0.7-1.1-0.9
						C228.5,346.8,229.2,345.6,230,346.1z"/>
					<path class="st4" d="M229.9,340.3c0.6,0.4,1.2,0.8,1.6,1.4c0.5,0.7-0.7,1.4-1.2,0.7c-0.3-0.4-0.7-0.7-1.1-0.9
						C228.4,341,229.1,339.8,229.9,340.3z"/>
					<path class="st4" d="M235.7,343.4c0.8-0.8,1.6-1.5,2.3-2.3c0.6-0.6,1.5,0.4,0.9,1c-0.8,0.8-1.6,1.5-2.3,2.3
						C235.9,345.1,235,344,235.7,343.4z"/>
					<path class="st4" d="M235.8,347.7c-0.2,0.6-0.6,1.2-0.8,1.8c-0.3,0.8-1.6,0.4-1.3-0.4c0.2-0.6,0.6-1.2,0.8-1.8
						C234.8,346.5,236.1,346.9,235.8,347.7z"/>
					<path class="st4" d="M228.3,354.7c-0.2,0.6-0.6,1.2-0.8,1.8c-0.3,0.8-1.6,0.4-1.3-0.4c0.2-0.6,0.6-1.2,0.8-1.8
						C227.3,353.5,228.6,353.9,228.3,354.7z"/>
					<path class="st4" d="M234.1,354.5c-0.6-0.2-1.2-0.6-1.8-0.8c-0.8-0.3-0.4-1.6,0.4-1.3c0.6,0.2,1.2,0.6,1.8,0.8
						C235.3,353.6,234.9,354.9,234.1,354.5z"/>
					<path class="st4" d="M221.1,370.3c-0.6,0.3-1.2,0.6-1.9,0.8c-0.8,0.2-0.5,1.5,0.4,1.3c0.8-0.2,1.5-0.6,2.2-0.9
						C222.6,371.1,221.9,369.9,221.1,370.3z"/>
					<path class="st4" d="M222.4,363.3c-0.6,0.4-1.2,0.8-1.6,1.4c-0.5,0.7,0.7,1.4,1.2,0.7c0.3-0.4,0.7-0.7,1.1-0.9
						C223.8,364,223.1,362.8,222.4,363.3z"/>
					<path class="st54" d="M229.7,391.5l1.5-8.5c-10.1,3-24.4,1.2-29.3-0.2l1.4,8.3C213.5,394.4,224.5,392.7,229.7,391.5z"/>
					<path class="st49" d="M207.2,387.8c0,0.8-0.7,1.5-1.5,1.5c-0.8,0-1.5-0.7-1.5-1.5c0-0.8,0.7-1.5,1.5-1.5
						C206.6,386.3,207.2,387,207.2,387.8z"/>
					<path class="st49" d="M214.1,388.8c0,0.8-0.7,1.5-1.5,1.5c-0.8,0-1.5-0.7-1.5-1.5c0-0.8,0.7-1.5,1.5-1.5
						C213.5,387.4,214.1,388,214.1,388.8z"/>
					<path class="st49" d="M221.7,388.7c0,0.8-0.7,1.5-1.5,1.5s-1.5-0.7-1.5-1.5s0.7-1.5,1.5-1.5S221.7,387.9,221.7,388.7z"/>
					<path class="st49" d="M229.2,388c0,0.8-0.7,1.5-1.5,1.5c-0.8,0-1.5-0.7-1.5-1.5s0.7-1.5,1.5-1.5
						C228.5,386.6,229.2,387.2,229.2,388z"/>
				</g>
			</g>
			<g class="st0">
				<polygon class="st11" points="206.7,438.2 215,444.8 215,431.5 206.7,438.2 215,444.8 215,431.5 				"/>
				<polygon class="st11" points="234,438.2 225.6,444.8 225.6,431.5 234,438.2 225.6,444.8 225.6,431.5 				"/>
			</g>
			<path class="st54" d="M65.2,221.8h-4v-4.1c0-0.7-0.5-1.2-1.3-1.2c-0.7,0-1.3,0.5-1.3,1.3v4h-4.1c-0.7,0-1.2,0.5-1.2,1.3
				c0,0.7,0.5,1.3,1.3,1.3h4v4.1c0,0.7,0.5,1.2,1.3,1.2c0.7,0,1.3-0.5,1.3-1.3v-4h4.1c0.7,0,1.2-0.5,1.2-1.3
				C66.4,222.3,65.9,221.8,65.2,221.8z"/>
			<path class="st4" d="M95.5,355.6l-2.9-2.9l2.9-2.9c0.5-0.5,0.5-1.3,0-1.8c-0.5-0.5-1.3-0.5-1.8,0l-2.9,2.9L88,348
				c-0.5-0.5-1.3-0.5-1.8,0c-0.5,0.5-0.5,1.3,0,1.8l2.9,2.9l-2.9,2.9c-0.5,0.5-0.5,1.3,0,1.8c0.5,0.5,1.3,0.5,1.8,0l2.9-2.9l2.9,2.9
				c0.5,0.5,1.3,0.5,1.8,0C96,356.9,96,356.1,95.5,355.6z"/>
			<path class="st41" d="M371.7,347.8l-2.9-2.9l2.9-2.9c0.5-0.5,0.5-1.3,0-1.8c-0.5-0.5-1.3-0.5-1.8,0l-2.9,2.9l-2.9-2.9
				c-0.5-0.5-1.3-0.5-1.8,0c-0.5,0.5-0.5,1.3,0,1.8l2.9,2.9l-2.9,2.9c-0.5,0.5-0.5,1.3,0,1.8c0.5,0.5,1.3,0.5,1.8,0l2.9-2.9l2.9,2.9
				c0.5,0.5,1.3,0.5,1.8,0C372.2,349.1,372.2,348.3,371.7,347.8z"/>
			<path class="st41" d="M362.5,191.5l-2.9-2.9l2.9-2.9c0.5-0.5,0.5-1.3,0-1.8c-0.5-0.5-1.3-0.5-1.8,0l-2.9,2.9l-2.9-2.9
				c-0.5-0.5-1.3-0.5-1.8,0c-0.5,0.5-0.5,1.3,0,1.8l2.9,2.9l-2.9,2.9c-0.5,0.5-0.5,1.3,0,1.8c0.5,0.5,1.3,0.5,1.8,0l2.9-2.9l2.9,2.9
				c0.5,0.5,1.3,0.5,1.8,0C363,192.8,363,192,362.5,191.5z"/>
			<path class="st4" d="M192.4,166.9h-4v-4.1c0-0.7-0.5-1.2-1.3-1.2c-0.7,0-1.3,0.5-1.3,1.3v4h-4.1c-0.7,0-1.2,0.5-1.2,1.3
				c0,0.7,0.5,1.3,1.3,1.3h4v4.1c0,0.7,0.5,1.2,1.3,1.2c0.7,0,1.3-0.5,1.3-1.3v-4h4.1c0.7,0,1.2-0.5,1.2-1.3
				C193.6,167.4,193.1,166.9,192.4,166.9z"/>
			<circle class="st4" cx="379.3" cy="222.7" r="3"/>
			<circle class="st4" cx="252.2" cy="324.6" r="3.5"/>
			<polygon class="st54" points="246.6,180 239.9,186.5 248.9,189 246.6,180 239.9,186.5 248.9,189 			"/>
			<polygon class="st32" points="166,343.4 168.5,352.5 175.1,345.8 166,343.4 168.5,352.5 175.1,345.8 			"/>
		</g>
	</g>
</g>
<g id="TEXTURE" class="st56">
</g>
<g id="DESIGNED_BY_FREEPIK" class="st0">
	<g class="st1">
		<g id="XMLID_1_">
			<g id="XMLID_20_">
				<path id="XMLID_28_" class="st57" d="M385.1,475.5c-0.4,0.4-0.8,0.9-1.1,1.5l-0.5-0.2c-0.1-0.3-0.3-0.5-0.7-0.5
					c-0.3,0-0.6,0.3-0.5,0.7c0,0.3,0.3,0.6,0.7,0.5c0.1,0,0.1,0,0.2-0.1l0.5,0.2c-0.3,0.6-0.4,1.1-0.5,1.7l0.7,0.1
					c0.2-1.3,0.8-2.5,1.8-3.5L385.1,475.5z"/>
				<path id="XMLID_27_" class="st57" d="M390.6,473.2c-0.2,0-0.3,0-0.5,0l-0.1-0.6c0.2-0.1,0.3-0.4,0.3-0.6c0-0.4-0.4-0.7-0.8-0.6
					c-0.4,0-0.7,0.4-0.6,0.8c0,0.3,0.2,0.5,0.4,0.6l0.1,0.6c-0.7,0.1-1.4,0.3-2.1,0.6l0.3,0.7c0.9-0.4,1.9-0.7,3-0.7
					c0.5,0,1,0.1,1.5,0.2l0.2-0.7C391.7,473.2,391.1,473.2,390.6,473.2z"/>
				<path id="XMLID_26_" class="st57" d="M397.2,475.7c0.3,0,0.6-0.3,0.5-0.7c0-0.3-0.3-0.6-0.7-0.5c-0.3,0-0.5,0.3-0.5,0.6
					l-0.4,0.4c-0.4-0.4-0.9-0.8-1.4-1.1l-0.4,0.6c1.1,0.7,2,1.7,2.6,2.9l0.7-0.3c-0.3-0.6-0.6-1.1-0.9-1.5l0.4-0.4
					C397.1,475.7,397.1,475.7,397.2,475.7z"/>
				<path id="XMLID_25_" class="st57" d="M390,483.4c-0.4,0-0.8,0-1.2,0c-0.9,0-1.7-0.1-2.5-0.2c-0.4-0.1-0.8-0.2-1.3-0.3
					c1,1.9,3.1,3.1,5.4,3.1c2.9,0,5.3-1.9,5.9-4.5c-0.7,0.4-1.5,0.8-2.5,1.1C392.8,483,391.5,483.3,390,483.4z"/>
				<path id="XMLID_21_" class="st57" d="M390.6,474.7c-3.4,0-6.1,2.7-6.1,5.9c0,0.4,0,0.8,0.1,1.3c0.7,0.5,2.7,0.9,5.3,0.7
					c2.9-0.2,5.3-1,6.7-2.2c0-0.2,0-0.4,0-0.6C396.2,476.9,393.7,474.7,390.6,474.7z M388.4,481.2c-1,0-1.8-0.8-1.8-1.8
					c0-1,0.8-1.9,1.8-1.9c1,0,1.8,0.8,1.8,1.9C390.3,480.4,389.5,481.2,388.4,481.2z M393.2,480.3c-0.8,0-1.4-0.6-1.4-1.4
					s0.6-1.4,1.4-1.4s1.4,0.6,1.4,1.4S393.9,480.3,393.2,480.3z"/>
			</g>
			<path id="XMLID_18_" class="st57" d="M406.6,476.5c-0.3-0.1-0.8-0.3-1.4-0.2c-0.6,0.1-0.8,0.3-0.8,1v0.9h2.2v1.7h-2.2v5.5h-1.9
				v-5.5h-1.3v-1.7h1.3v-0.9c0-1.7,0.9-2.8,2.6-2.8c0.6,0,1.2,0.1,1.6,0.3V476.5z"/>
			<path id="XMLID_16_" class="st57" d="M411.3,479.9c-0.2,0-0.4,0-0.5,0c-0.9,0-1.5,0.5-1.5,1.6v3.9h-1.9v-7.2h1.9v0.8
				c0.5-0.7,1.1-1,2-1c0.4,0,0.8,0.1,1.1,0.3L411.3,479.9z"/>
			<path id="XMLID_13_" class="st57" d="M419,481.8c0,0.2,0,0.5,0,0.7h-5.1c0.2,1,0.9,1.5,1.8,1.5c0.6,0,1.3-0.3,1.8-0.7l1.1,1.2
				c-0.8,0.7-1.9,1.1-3.1,1.1c-2.2,0-3.7-1.5-3.7-3.8c0-2.3,1.5-3.8,3.6-3.8C417.5,478,419,479.5,419,481.8z M413.9,481.1h3.2
				c-0.2-0.9-0.7-1.4-1.6-1.4C414.6,479.7,414,480.2,413.9,481.1z"/>
			<path id="XMLID_10_" class="st57" d="M426.6,481.8c0,0.2,0,0.5,0,0.7h-5.1c0.2,1,0.9,1.5,1.8,1.5c0.6,0,1.3-0.3,1.8-0.7l1.1,1.2
				c-0.8,0.7-1.8,1.1-3.1,1.1c-2.2,0-3.7-1.5-3.7-3.8c0-2.3,1.5-3.8,3.6-3.8C425.2,478,426.6,479.5,426.6,481.8z M421.5,481.1h3.2
				c-0.2-0.9-0.7-1.4-1.6-1.4C422.2,479.7,421.7,480.2,421.5,481.1z"/>
			<path id="XMLID_7_" class="st57" d="M435,481.8c0,2.2-1.5,3.8-3.5,3.8c-1,0-1.6-0.4-2.1-0.9v3.7h-1.9v-10.1h1.9v0.8
				c0.5-0.6,1.2-1,2.1-1C433.5,478,435,479.6,435,481.8z M429.3,481.8c0,1.1,0.7,2,1.8,2c1.1,0,1.8-0.9,1.8-2c0-1.1-0.7-2-1.8-2
				C430,479.8,429.3,480.6,429.3,481.8z"/>
			<path id="XMLID_4_" class="st57" d="M438.1,475.8c0,0.7-0.5,1.2-1.2,1.2c-0.7,0-1.2-0.5-1.2-1.2c0-0.7,0.5-1.2,1.2-1.2
				C437.5,474.6,438.1,475.1,438.1,475.8z M437.8,485.4h-1.9v-7.2h1.9V485.4z"/>
			<path id="XMLID_2_" class="st57" d="M441,480.7l2.7-2.6h2.4l-3.5,3.4l3.5,3.8h-2.4l-2.7-2.9v2.9h-1.9v-10.7h1.9V480.7z"/>
		</g>
		<g>
			<path class="st57" d="M309.4,485.3v-1.1c-0.5,0.7-1.4,1.2-2.4,1.2c-1.8,0-3.1-1.4-3.1-3.7c0-2.3,1.3-3.7,3.1-3.7
				c1,0,1.8,0.5,2.4,1.2v-3.8h1.1v9.8H309.4z M309.4,483.4v-3.2c-0.4-0.6-1.2-1.1-2.1-1.1c-1.4,0-2.3,1.2-2.3,2.7
				c0,1.6,0.8,2.7,2.3,2.7C308.2,484.5,309,484,309.4,483.4z"/>
			<path class="st57" d="M311.9,481.7c0-2.1,1.5-3.7,3.5-3.7c2.1,0,3.4,1.7,3.4,3.8v0.3h-5.7c0.1,1.3,1,2.4,2.5,2.4
				c0.8,0,1.6-0.3,2.2-0.9l0.5,0.7c-0.7,0.7-1.7,1.1-2.8,1.1C313.4,485.5,311.9,484,311.9,481.7z M315.4,478.9
				c-1.5,0-2.3,1.3-2.3,2.4h4.6C317.7,480.3,317,478.9,315.4,478.9z"/>
			<path class="st57" d="M319.6,484.4l0.6-0.8c0.5,0.5,1.4,1,2.3,1c1.1,0,1.7-0.5,1.7-1.2c0-1.7-4.4-0.7-4.4-3.3c0-1.1,1-2,2.6-2
				c1.2,0,2.1,0.5,2.6,1l-0.5,0.8c-0.4-0.5-1.2-0.9-2.1-0.9c-1,0-1.6,0.5-1.6,1.1c0,1.6,4.4,0.5,4.4,3.3c0,1.2-1,2.1-2.8,2.1
				C321.3,485.5,320.3,485.1,319.6,484.4z"/>
			<path class="st57" d="M326.5,476.5c0-0.4,0.3-0.7,0.7-0.7c0.4,0,0.7,0.3,0.7,0.7c0,0.4-0.3,0.7-0.7,0.7
				C326.8,477.2,326.5,476.9,326.5,476.5z M326.7,485.3v-7.1h1.1v7.1H326.7z"/>
			<path class="st57" d="M329.6,487.1l0.6-0.8c0.6,0.7,1.3,1,2.3,1c1.2,0,2.3-0.6,2.3-2.1v-1c-0.5,0.7-1.4,1.3-2.4,1.3
				c-1.8,0-3.1-1.4-3.1-3.7c0-2.3,1.3-3.7,3.1-3.7c1,0,1.8,0.5,2.4,1.2v-1.1h1.1v6.9c0,2.3-1.6,3.1-3.4,3.1
				C331.2,488.2,330.4,487.9,329.6,487.1z M334.7,483.3v-3.1c-0.4-0.6-1.2-1.1-2.1-1.1c-1.4,0-2.3,1.1-2.3,2.7
				c0,1.6,0.8,2.7,2.3,2.7C333.5,484.4,334.3,483.9,334.7,483.3z"/>
			<path class="st57" d="M342.4,485.3v-4.6c0-1.2-0.6-1.6-1.6-1.6c-0.9,0-1.7,0.5-2.1,1.1v5.2h-1.1v-7.1h1.1v1
				c0.5-0.6,1.5-1.2,2.5-1.2c1.5,0,2.3,0.7,2.3,2.3v5H342.4z"/>
			<path class="st57" d="M344.9,481.7c0-2.1,1.5-3.7,3.5-3.7c2.1,0,3.4,1.7,3.4,3.8v0.3h-5.7c0.1,1.3,1,2.4,2.5,2.4
				c0.8,0,1.6-0.3,2.2-0.9l0.5,0.7c-0.7,0.7-1.7,1.1-2.8,1.1C346.4,485.5,344.9,484,344.9,481.7z M348.4,478.9
				c-1.5,0-2.3,1.3-2.3,2.4h4.6C350.7,480.3,350,478.9,348.4,478.9z"/>
			<path class="st57" d="M358.3,485.3v-1.1c-0.5,0.7-1.4,1.2-2.4,1.2c-1.8,0-3.1-1.4-3.1-3.7c0-2.3,1.3-3.7,3.1-3.7
				c1,0,1.8,0.5,2.4,1.2v-3.8h1.1v9.8H358.3z M358.3,483.4v-3.2c-0.4-0.6-1.2-1.1-2.1-1.1c-1.4,0-2.3,1.2-2.3,2.7
				c0,1.6,0.8,2.7,2.3,2.7C357.1,484.5,358,484,358.3,483.4z"/>
			<path class="st57" d="M364.7,485.3v-9.8h1.1v3.8c0.6-0.8,1.4-1.2,2.4-1.2c1.8,0,3.1,1.5,3.1,3.7c0,2.3-1.3,3.7-3.1,3.7
				c-1,0-1.9-0.5-2.4-1.2v1.1H364.7z M367.9,484.5c1.4,0,2.3-1.2,2.3-2.7c0-1.6-0.8-2.7-2.3-2.7c-0.9,0-1.7,0.5-2.1,1.1v3.2
				C366.2,484,367,484.5,367.9,484.5z"/>
			<path class="st57" d="M372.5,487.1c0.2,0.1,0.4,0.1,0.6,0.1c0.5,0,0.8-0.2,1.1-0.7l0.5-1.1l-3-7.1h1.2l2.4,5.8l2.3-5.8h1.2
				l-3.5,8.5c-0.4,1-1.1,1.4-2.1,1.4c-0.2,0-0.6,0-0.8-0.1L372.5,487.1z"/>
		</g>
	</g>
</g>
</svg>
